<?xml version="1.0" encoding="utf-8"?>
<!-- Generator: Adobe Illustrator 19.2.1, SVG Export Plug-In . SVG Version: 6.00 Build 0)  -->
<svg version="1.1" id="Layer_1" xmlns="http://www.w3.org/2000/svg" xmlns:xlink="http://www.w3.org/1999/xlink" x="0px" y="0px"
	 viewBox="0 0 16.6 11" style="enable-background:new 0 0 16.6 11;" xml:space="preserve">
<style type="text/css">
	.st0{fill:#FF0000;}
</style>
<g>
	<path class="st0" d="M16,7.4V5.6c0-0.7-0.5-1.2-1.2-1.2l-0.8-0.1L12.5,2c0,0,0-0.1-0.1-0.1c-0.2-0.3-0.6-0.5-1-0.5H8.7V0.7
		C8.7,0.3,8.4,0,8.1,0H0.6C0.3,0,0,0.3,0,0.7V9c0,0.4,0.3,0.7,0.7,0.7h1C1.9,10.4,2.6,11,3.5,11c0.9,0,1.6-0.6,1.8-1.4h6.2
		c0.2,0.8,0.9,1.4,1.8,1.4c0.9,0,1.6-0.6,1.8-1.4h0.9c0.4,0,0.7-0.3,0.7-0.7V8.1C16.6,7.7,16.4,7.4,16,7.4L16,7.4z M3.5,10.1
		c-0.5,0-0.9-0.4-0.9-0.9c0-0.5,0.4-0.9,0.9-0.9c0.5,0,0.9,0.4,0.9,0.9C4.4,9.6,4,10.1,3.5,10.1L3.5,10.1z M10,4.3
		C9.9,4.3,9.9,4.3,10,4.3L9.9,2.5c0,0,0-0.1,0.1-0.1h1.5c0,0,0.1,0,0.1,0l1.2,1.7c0,0.1,0,0.1-0.1,0.1L10,4.3L10,4.3z M13.3,10.1
		c-0.5,0-0.9-0.4-0.9-0.9c0-0.5,0.4-0.9,0.9-0.9c0.5,0,0.9,0.4,0.9,0.9C14.2,9.6,13.8,10.1,13.3,10.1L13.3,10.1z M13.3,10.1"/>
</g>
</svg>
