<?xml version="1.0" encoding="utf-8"?>
<!-- Generator: Adobe Illustrator 19.2.1, SVG Export Plug-In . SVG Version: 6.00 Build 0)  -->
<svg version="1.1" id="Layer_1" xmlns="http://www.w3.org/2000/svg" xmlns:xlink="http://www.w3.org/1999/xlink" x="0px" y="0px"
	 viewBox="0 0 62.7 76.1" style="enable-background:new 0 0 62.7 76.1;" xml:space="preserve">
<style type="text/css">
	.st0{fill:#FF0000;}
</style>
<g>
	<g>
		<path class="st0" d="M31.4,0C14.1,0,0,5.1,0,11.4v9.4c0,6.3,14,11.4,31.3,11.4c17.3,0,31.3-5.1,31.3-11.4v-9.4
			C62.7,5.1,48.7,0,31.4,0L31.4,0z M31.4,0"/>
		<path class="st0" d="M31.4,37.7C14.8,37.7,1.2,33,0,27.1C0,27.4,0,42.6,0,42.6C0,48.9,14.1,54,31.4,54c17.3,0,31.3-5.1,31.3-11.4
			c0,0,0-15.2,0-15.5C61.5,33,47.9,37.7,31.4,37.7L31.4,37.7z M31.4,37.7"/>
	</g>
	<path class="st0" d="M62.7,49.2c-1.2,5.9-14.8,10.6-31.3,10.6C14.8,59.7,1.2,55.1,0,49.2v15.5c0,6.3,14,11.4,31.3,11.4
		c17.3,0,31.3-5.1,31.3-11.4L62.7,49.2z M62.7,49.2"/>
</g>
</svg>
