<?xml version="1.0" encoding="utf-8"?>
<!-- Generator: Adobe Illustrator 19.2.1, SVG Export Plug-In . SVG Version: 6.00 Build 0)  -->
<svg version="1.1" id="Layer_1" xmlns="http://www.w3.org/2000/svg" xmlns:xlink="http://www.w3.org/1999/xlink" x="0px" y="0px"
	 viewBox="0 0 15 11.3" style="enable-background:new 0 0 15 11.3;" xml:space="preserve">
<style type="text/css">
	.st0{fill:#999999;}
</style>
<g>
	<path class="st0" d="M9.3,9.5c0,1-0.8,1.8-1.7,1.8c-1,0-1.8-0.8-1.8-1.8c0-1,0.8-1.8,1.8-1.8C8.5,7.8,9.3,8.6,9.3,9.5L9.3,9.5z
		 M9.3,9.5"/>
	<g>
		<path class="st0" d="M11.7,5.3C11.7,5.3,11.7,5.3,11.7,5.3l-0.2-0.2c0,0,0,0,0,0c-2.3-2.1-5.7-2-7.9,0.2L3.4,5.6L3,5.9
			C2.6,6.3,2.6,7,3,7.5c0.4,0.4,1.1,0.4,1.6,0l0.6-0.6c1.4-1.4,3.6-1.4,5,0l0.4,0.4c0.4,0.4,1.1,0.4,1.5,0c0.2-0.2,0.3-0.5,0.3-0.8
			c0-0.3-0.1-0.6-0.3-0.8L11.7,5.3z M11.7,5.3"/>
		<path class="st0" d="M14.7,3.1l-0.4-0.4c0,0,0,0,0,0l-0.3-0.3c0,0-0.1-0.1-0.2-0.1C10.2-0.9,4.6-0.8,1,2.7c0,0,0,0-0.1,0L0.3,3.4
			c-0.4,0.4-0.4,1,0,1.4c0.4,0.4,1,0.4,1.4,0l0.7-0.7c0,0,0,0,0,0C5.3,1.3,9.9,1.3,12.8,4l0.5,0.5c0.4,0.4,1,0.4,1.4,0
			C15.1,4.2,15.1,3.5,14.7,3.1L14.7,3.1z M14.7,3.1"/>
	</g>
</g>
</svg>
